<?xml version="1.0" encoding="utf-8"?>
<svg xmlns="http://www.w3.org/2000/svg" xmlns:xlink="http://www.w3.org/1999/xlink" style="margin: auto; background: none; display: block; shape-rendering: auto;" width="200px" height="200px" viewBox="0 0 100 100" preserveAspectRatio="xMidYMid">
<g transform="translate(50 50)">
<g>
<animateTransform attributeName="transform" type="rotate" values="0;25.714285714285715" keyTimes="0;1" dur="0.2s" repeatCount="indefinite"></animateTransform><path d="M27.45450782658469 -5.5 L38.45450782658469 -5.5 L38.45450782658469 5.5 L27.45450782658469 5.5 A28 28 0 0 1 27.122017400482683 6.9567357379675245 L27.122017400482683 6.9567357379675245 L37.03267494740929 11.729456868260662 L32.259953817116156 21.640114415187274 L22.349296270189544 16.867393284894135 A28 28 0 0 1 21.417678798500503 18.0356046442658 L21.417678798500503 18.0356046442658 L28.276066618946572 26.635750951414124 L19.675920311798244 33.49413877186019 L12.817532491352175 24.893992464711868 A28 28 0 0 1 11.4713062398826 25.542300858592018 L11.4713062398826 25.542300858592018 L13.919036513402059 36.266507892592074 L3.1948294794020002 38.714238166111535 L0.7470992058825413 27.990031132111476 A28 28 0 0 1 -0.7470992058825378 27.990031132111476 L-0.7470992058825378 27.990031132111476 L-3.1948294794019954 38.714238166111535 L-13.919036513402054 36.26650789259208 L-11.471306239882596 25.54230085859202 A28 28 0 0 1 -12.817532491352168 24.893992464711875 L-12.817532491352168 24.893992464711875 L-19.675920311798237 33.49413877186021 L-28.276066618946572 26.635750951414128 L-21.417678798500503 18.0356046442658 A28 28 0 0 1 -22.34929627018954 16.86739328489414 L-22.34929627018954 16.86739328489414 L-32.25995381711615 21.640114415187277 L-37.03267494740929 11.729456868260662 L-27.122017400482683 6.956735737967522 A28 28 0 0 1 -27.45450782658469 5.500000000000009 L-27.45450782658469 5.500000000000009 L-38.45450782658469 5.500000000000011 L-38.45450782658469 -5.5 L-27.45450782658469 -5.500000000000002 A28 28 0 0 1 -27.122017400482683 -6.956735737967516 L-27.122017400482683 -6.956735737967516 L-37.03267494740929 -11.729456868260655 L-32.259953817116156 -21.640114415187274 L-22.34929627018954 -16.867393284894135 A28 28 0 0 1 -21.41767879850051 -18.035604644265796 L-21.41767879850051 -18.035604644265796 L-28.27606661894658 -26.635750951414124 L-19.675920311798244 -33.4941387718602 L-12.817532491352171 -24.89399246471187 A28 28 0 0 1 -11.471306239882608 -25.542300858592014 L-11.471306239882608 -25.542300858592014 L-13.91903651340207 -36.266507892592074 L-3.194829479401999 -38.714238166111535 L-0.7470992058825385 -27.990031132111476 A28 28 0 0 1 0.7470992058825282 -27.990031132111476 L0.7470992058825282 -27.990031132111476 L3.1948294794019847 -38.714238166111535 L13.919036513402055 -36.266507892592074 L11.4713062398826 -25.542300858592018 A28 28 0 0 1 12.817532491352164 -24.893992464711875 L12.817532491352164 -24.893992464711875 L19.67592031179823 -33.49413877186021 L28.276066618946565 -26.635750951414128 L21.4176787985005 -18.0356046442658 A28 28 0 0 1 22.349296270189537 -16.867393284894142 L22.349296270189537 -16.867393284894142 L32.25995381711615 -21.640114415187284 L37.03267494740929 -11.729456868260666 L27.122017400482683 -6.9567357379675245 A28 28 0 0 1 27.45450782658469 -5.500000000000012 M0 -23A23 23 0 1 0 0 23 A23 23 0 1 0 0 -23" fill="#292664"></path></g></g>
<!-- [ldio] generated by https://loading.io/ --></svg>